# xmcd
#
# Track frame offsets:
#	187
#	14762
#	36847
#	62910
#	83257
#	99652
#	124900
#	149947
#	162255
#	198257
#
# Disc length: 2973 seconds
# Revision: 0
# Processed by: cddbd v1.5.2PL0 Copyright (c) Steve Scherf et al.
# Submitted via: dBpowerAMP V12.0
#
DISCID=8d0b9b0a
DTITLE=Various Artist - Sampler '86
DYEAR=1986
DGENRE=Blues
TTITLE0=John Jarvis - Scrumpy Cider
TTITLE1=John Jarvis - A Month of Seasons
TTITLE2=Larry Carlton - Smiles and Smiles to Go
TTITLE3=Larry Carlton - Perfect Peace
TTITLE4=Robert Greenridge and Michael Utley - Coco Loco
TTITLE5=Albert Lee - Seventeenth Summer
TTITLE6=Jerry Douglas - Grant's Corner
TTITLE7=Jerry Douglas - Time Gone by
TTITLE8=Edgar Meyer - Cycles
TTITLE9=Edgar Meyer - Unfolding
EXTD=
EXTT0=
EXTT1=
EXTT2=
EXTT3=
EXTT4=
EXTT5=
EXTT6=
EXTT7=
EXTT8=
EXTT9=
PLAYORDER=
